<?xml version="1.0" encoding="utf-8"?>
<!-- Generator: Adobe Illustrator 17.1.0, SVG Export Plug-In . SVG Version: 6.00 Build 0)  -->
<!DOCTYPE svg PUBLIC "-//W3C//DTD SVG 1.1//EN" "http://www.w3.org/Graphics/SVG/1.1/DTD/svg11.dtd">
<svg version="1.1" id="Layer_1" xmlns="http://www.w3.org/2000/svg" xmlns:xlink="http://www.w3.org/1999/xlink" x="0px" y="0px"
	 viewBox="0 0 1000 1000" enable-background="new 0 0 1000 1000" xml:space="preserve" width="100" height="100">
<g>
	<path fill="#1E6679" d="M499.086,225.194c277.185,0,400.476,33.454,400.476,275.272c0,240.862-123.29,274.319-400.476,274.319
		c-276.226,0-399.524-33.456-399.524-274.319C106.25,257.691,222.86,225.194,499.086,225.194L499.086,225.194z"/>
	<path fill="#FFFFFF" d="M183.669,500.467c0,45.878-19.116,92.709-18.157,136.679c0,36.317,30.584,66.907,72.639,66.907
		c53.526-0.956,117.563-18.165,260.935-16.253c143.372-1.912,207.404,15.297,260.933,16.253c42.057,0,72.642-30.59,72.642-66.907
		c0.956-43.971-18.157-90.802-18.157-136.679c0-45.884,19.113-92.715,18.157-135.726c0-37.274-30.584-67.861-72.642-67.861
		c-53.529,0.953-117.561,18.163-260.933,16.247c-143.372,1.916-207.409-15.294-260.935-16.247
		c-42.055,0-72.639,30.587-72.639,67.861C164.553,407.752,183.669,454.583,183.669,500.467L183.669,500.467z"/>
</g>
<path d="M701.583,642.058c34.873,0,54.356-14.017,54.356-47.857V413.363h-31.108v145.284h-23.248
	c-17.432,0-23.242-7.177-23.242-21.536V413.363h-31.105v121.695c0,33.845,19.486,47.862,54.347,47.862h23.248v13.334
	c0,14.356-5.815,21.533-23.248,21.533H482.122c3.081-6.493,4.443-14.356,4.443-23.587V413.363H455.46v145.284h-23.244
	c-17.435,0-23.248-7.177-23.248-21.536V413.363H377.86v121.695c0,33.845,19.488,47.862,54.356,47.862h23.244v13.334
	c0,14.356-5.81,21.533-23.244,21.533H297.528c-17.432,0-23.245-7.177-23.245-21.533v-69.737h46.489v56.403h31.111V458.488
	c0-33.845-19.485-47.857-54.355-47.857h-54.351v183.569c0,33.839,19.483,47.857,54.351,47.857H701.583z"/>
<path d="M621.258,458.488c0-33.845-19.489-47.857-54.353-47.857c-34.87,0-54.356,14.012-54.356,47.857v79.306
	c0,33.845,19.485,47.862,54.356,47.862c34.864,0,54.353-14.017,54.353-47.862V458.488z"/>
<rect x="243.178" y="357.914" width="512.761" height="24.273"/>
<path fill="#FFFFFF" d="M590.147,539.845c0,14.362-5.808,21.539-23.242,21.539c-17.435,0-23.248-7.177-23.248-21.539v-83.407
	c0-14.359,5.813-21.539,23.248-21.539c17.435,0,23.242,7.18,23.242,21.539V539.845z"/>
<path fill="#FFFFFF" d="M320.773,502.247h-46.489v-67.348h23.245c17.437,0,23.244,7.18,23.244,21.539V502.247z"/>
</svg>
